<svg width="64" height="18" viewBox="0 0 64 18" fill="none" xmlns="http://www.w3.org/2000/svg">
<path fill-rule="evenodd" clip-rule="evenodd" d="M45.1937 0.00894867V3.19842C44.9744 3.18076 44.7543 3.17293 44.5343 3.17492C44.4727 3.17492 44.4087 3.17492 44.3423 3.18059C44.2758 3.18627 44.2321 3.18546 44.1746 3.19194C43.7001 3.23836 43.2333 3.34424 42.7852 3.50708C42.6704 3.54899 42.5572 3.5952 42.4458 3.64561C42.0406 3.81779 41.6576 4.03811 41.3051 4.30181C41.2727 4.32692 41.2395 4.35042 41.2087 4.37553C40.7225 4.73418 40.3269 5.20152 40.0535 5.74025C39.78 6.27898 39.6363 6.87417 39.6338 7.47832L39.6249 17.4591H36.1316V0.371075H39.3025L39.5099 1.10991L39.7918 2.12014C40.451 1.41924 41.2528 0.867774 42.1431 0.502896C43.0334 0.138018 43.9916 -0.0317955 44.9531 0.00489804C45.026 0.00489804 45.1078 0.00489804 45.1937 0.00894867ZM4.79352 14.4754L4.87939 14.3709L14.7443 2.4847V0.370265H0V3.35882H9.91352L9.82765 3.46009L0 15.3495V17.4607H14.7443V14.4754H4.79352ZM33.229 8.91629C33.2701 6.56576 32.4037 4.28981 30.8099 2.56166C30.0154 1.73844 29.0606 1.08684 28.0044 0.647086C26.9482 0.207335 25.8131 -0.0112268 24.6692 0.00489804C19.6464 0.00489804 16.0008 3.75335 16.0008 8.91629C16.0008 13.9966 19.9591 17.8277 25.2047 17.8277C29.568 17.8277 31.855 15.6598 32.6684 14.6747L30.4 12.5975C29.7652 13.3406 28.9736 13.9338 28.0821 14.3344C27.1907 14.735 26.2215 14.9331 25.2444 14.9145C23.7519 14.9247 22.3093 14.3779 21.1986 13.3809C20.1299 12.4234 19.4778 11.086 19.3815 9.65432L19.3766 9.58708H33.1957C33.2185 9.36424 33.2283 9.14026 33.2249 8.91629H33.229ZM19.6658 6.78242L19.6877 6.70141C20.0074 5.59919 20.6797 4.6322 21.6016 3.94858C22.5234 3.26496 23.6439 2.90242 24.7915 2.91649C25.8941 2.93874 26.9591 3.32075 27.8245 4.00432C28.6899 4.6879 29.3081 5.63558 29.585 6.70303L29.6045 6.78404H19.6618L19.6658 6.78242ZM54.7962 0.00489804C49.5482 0.00489804 45.5923 3.83518 45.5923 8.91629C45.5923 13.9974 49.5482 17.8277 54.7962 17.8277C60.0442 17.8277 64 13.9966 64 8.91629C64 3.83599 60.0417 0.00489804 54.7962 0.00489804ZM54.7962 14.6577C53.6593 14.6636 52.5463 14.3319 51.5982 13.7046C50.6501 13.0773 49.9095 12.1827 49.4704 11.1341C49.0313 10.0855 48.9134 8.9301 49.1316 7.81439C49.3498 6.69869 49.8943 5.67288 50.6961 4.86696C51.4979 4.06105 52.5209 3.51131 53.6355 3.28743C54.7501 3.06355 55.9061 3.1756 56.9569 3.60938C58.0077 4.04316 58.9061 4.77915 59.5382 5.72405C60.1703 6.66896 60.5077 7.78026 60.5075 8.9171C60.5265 9.67367 60.392 10.4262 60.1121 11.1294C59.8321 11.8325 59.4126 12.4716 58.8788 13.0081C58.345 13.5446 57.7081 13.9674 57.0064 14.2509C56.3047 14.5344 55.5528 14.6728 54.7962 14.6577Z" fill="black"/>
</svg>
